<?xml version="1.0" encoding="UTF-8"?>
<svg xmlns="http://www.w3.org/2000/svg" xmlns:xlink="http://www.w3.org/1999/xlink" width="80pt" height="80pt" viewBox="0 0 80 80" version="1.1">
<g id="surface1">
<path style=" stroke:none;fill-rule:nonzero;fill:rgb(96.862745%,96.470588%,96.862745%);fill-opacity:1;" d="M 2.421875 78.828125 L 16.636719 78.828125 L 16.636719 25.960938 L 5.859375 25.960938 C 3.269531 25.960938 1.171875 28.058594 1.171875 30.648438 L 1.171875 77.578125 C 1.171875 78.269531 1.730469 78.828125 2.421875 78.828125 Z M 2.421875 78.828125 "/>
<path style=" stroke:none;fill-rule:nonzero;fill:rgb(92.941176%,92.156863%,92.941176%);fill-opacity:1;" d="M 11.949219 25.960938 L 16.636719 25.960938 L 16.636719 78.828125 L 11.949219 78.828125 Z M 11.949219 25.960938 "/>
<path style=" stroke:none;fill-rule:nonzero;fill:rgb(74.509804%,84.705882%,98.431373%);fill-opacity:1;" d="M 16.636719 32.992188 L 9.453125 32.992188 C 8.761719 32.992188 8.199219 33.554688 8.203125 34.246094 L 8.230469 40.015625 C 8.230469 40.707031 8.792969 41.261719 9.480469 41.261719 L 16.636719 41.261719 Z M 16.636719 32.992188 "/>
<path style=" stroke:none;fill-rule:nonzero;fill:rgb(74.509804%,84.705882%,98.431373%);fill-opacity:1;" d="M 16.636719 48.292969 L 9.453125 48.292969 C 8.761719 48.292969 8.199219 48.855469 8.203125 49.546875 L 8.230469 55.320312 C 8.230469 56.007812 8.792969 56.5625 9.480469 56.5625 L 16.636719 56.5625 Z M 16.636719 48.292969 "/>
<path style=" stroke:none;fill-rule:nonzero;fill:rgb(61.568627%,77.647059%,98.431373%);fill-opacity:1;" d="M 11.949219 32.992188 L 16.636719 32.992188 L 16.636719 41.261719 L 11.949219 41.261719 Z M 11.949219 32.992188 "/>
<path style=" stroke:none;fill-rule:nonzero;fill:rgb(61.568627%,77.647059%,98.431373%);fill-opacity:1;" d="M 11.949219 48.292969 L 16.636719 48.292969 L 16.636719 56.5625 L 11.949219 56.5625 Z M 11.949219 48.292969 "/>
<path style=" stroke:none;fill-rule:nonzero;fill:rgb(74.509804%,84.705882%,98.431373%);fill-opacity:1;" d="M 16.636719 63.527344 L 9.453125 63.527344 C 8.761719 63.527344 8.199219 64.089844 8.203125 64.78125 L 8.230469 70.550781 C 8.230469 71.242188 8.792969 71.796875 9.480469 71.796875 L 16.636719 71.796875 Z M 16.636719 63.527344 "/>
<path style=" stroke:none;fill-rule:nonzero;fill:rgb(61.568627%,77.647059%,98.431373%);fill-opacity:1;" d="M 11.949219 63.527344 L 16.636719 63.527344 L 16.636719 71.796875 L 11.949219 71.796875 Z M 11.949219 63.527344 "/>
<path style=" stroke:none;fill-rule:nonzero;fill:rgb(96.862745%,96.470588%,96.862745%);fill-opacity:1;" d="M 63.363281 78.828125 L 51.644531 78.828125 L 40 76.484375 L 28.355469 78.828125 L 16.5625 78.828125 L 16.5625 19.6875 C 16.5625 17.097656 18.660156 15 21.25 15 L 58.675781 15 C 61.265625 15 63.363281 17.097656 63.363281 19.6875 Z M 63.363281 78.828125 "/>
<path style=" stroke:none;fill-rule:nonzero;fill:rgb(92.941176%,92.156863%,92.941176%);fill-opacity:1;" d="M 58.675781 15 L 53.988281 15 C 56.578125 15 58.675781 17.097656 58.675781 19.6875 L 58.675781 78.828125 L 63.363281 78.828125 L 63.363281 19.6875 C 63.363281 17.097656 61.265625 15 58.675781 15 Z M 58.675781 15 "/>
<path style=" stroke:none;fill-rule:nonzero;fill:rgb(86.666667%,38.823529%,43.137255%);fill-opacity:1;" d="M 53.828125 15 C 53.828125 22.636719 47.636719 28.828125 40 28.828125 C 32.363281 28.828125 26.171875 22.636719 26.171875 15 C 26.171875 7.363281 32.363281 1.171875 40 1.171875 C 47.636719 1.171875 53.828125 7.363281 53.828125 15 Z M 53.828125 15 "/>
<path style=" stroke:none;fill-rule:nonzero;fill:rgb(85.490196%,29.019608%,32.941176%);fill-opacity:1;" d="M 40 1.171875 C 39.203125 1.171875 38.417969 1.242188 37.65625 1.371094 C 44.167969 2.488281 49.140625 8.175781 49.140625 15 C 49.140625 21.824219 44.167969 27.511719 37.65625 28.628906 C 38.417969 28.757812 39.203125 28.828125 40 28.828125 C 47.625 28.828125 53.828125 22.625 53.828125 15 C 53.828125 7.375 47.625 1.171875 40 1.171875 Z M 40 1.171875 "/>
<path style=" stroke:none;fill-rule:nonzero;fill:rgb(100%,100%,100%);fill-opacity:1;" d="M 48.203125 12.65625 L 42.8125 12.65625 C 42.554688 12.65625 42.34375 12.445312 42.34375 12.1875 L 42.34375 6.796875 C 42.34375 6.277344 41.925781 5.859375 41.40625 5.859375 L 38.59375 5.859375 C 38.074219 5.859375 37.65625 6.277344 37.65625 6.796875 L 37.65625 12.1875 C 37.65625 12.445312 37.445312 12.65625 37.1875 12.65625 L 31.796875 12.65625 C 31.277344 12.65625 30.859375 13.074219 30.859375 13.59375 L 30.859375 16.40625 C 30.859375 16.925781 31.277344 17.34375 31.796875 17.34375 L 37.1875 17.34375 C 37.445312 17.34375 37.65625 17.554688 37.65625 17.8125 L 37.65625 23.203125 C 37.65625 23.722656 38.074219 24.140625 38.59375 24.140625 L 41.40625 24.140625 C 41.925781 24.140625 42.34375 23.722656 42.34375 23.203125 L 42.34375 17.8125 C 42.34375 17.554688 42.554688 17.34375 42.8125 17.34375 L 48.203125 17.34375 C 48.722656 17.34375 49.140625 16.925781 49.140625 16.40625 L 49.140625 13.59375 C 49.140625 13.074219 48.722656 12.65625 48.203125 12.65625 Z M 48.203125 12.65625 "/>
<path style=" stroke:none;fill-rule:nonzero;fill:rgb(39.607843%,36.862745%,40.392157%);fill-opacity:1;" d="M 28.355469 55.847656 L 51.644531 55.847656 L 51.644531 78.828125 L 28.355469 78.828125 Z M 28.355469 55.847656 "/>
<path style=" stroke:none;fill-rule:nonzero;fill:rgb(32.941176%,30.980392%,33.72549%);fill-opacity:1;" d="M 46.957031 55.847656 L 51.644531 55.847656 L 51.644531 78.828125 L 46.957031 78.828125 Z M 46.957031 55.847656 "/>
<path style=" stroke:none;fill-rule:nonzero;fill:rgb(74.509804%,84.705882%,98.431373%);fill-opacity:1;" d="M 35.234375 44.128906 L 24.847656 44.128906 C 24.15625 44.128906 23.597656 43.566406 23.597656 42.875 L 23.625 37.105469 C 23.628906 36.414062 24.1875 35.859375 24.875 35.859375 L 35.234375 35.859375 C 35.925781 35.859375 36.484375 36.417969 36.484375 37.109375 L 36.484375 42.878906 C 36.484375 43.570312 35.925781 44.128906 35.234375 44.128906 Z M 35.234375 44.128906 "/>
<path style=" stroke:none;fill-rule:nonzero;fill:rgb(61.568627%,77.647059%,98.431373%);fill-opacity:1;" d="M 35.234375 35.859375 L 30.546875 35.859375 C 31.238281 35.859375 31.796875 36.417969 31.796875 37.109375 L 31.796875 42.878906 C 31.796875 43.570312 31.238281 44.128906 30.546875 44.128906 L 35.234375 44.128906 C 35.925781 44.128906 36.484375 43.570312 36.484375 42.878906 L 36.484375 37.109375 C 36.484375 36.417969 35.925781 35.859375 35.234375 35.859375 Z M 35.234375 35.859375 "/>
<path style=" stroke:none;fill-rule:nonzero;fill:rgb(74.509804%,84.705882%,98.431373%);fill-opacity:1;" d="M 44.765625 35.859375 L 55.113281 35.859375 C 55.804688 35.859375 56.367188 36.421875 56.363281 37.113281 L 56.335938 42.886719 C 56.332031 43.574219 55.773438 44.128906 55.085938 44.128906 L 44.765625 44.128906 C 44.074219 44.128906 43.515625 43.570312 43.515625 42.878906 L 43.515625 37.109375 C 43.515625 36.417969 44.074219 35.859375 44.765625 35.859375 Z M 44.765625 35.859375 "/>
<path style=" stroke:none;fill-rule:nonzero;fill:rgb(61.568627%,77.647059%,98.431373%);fill-opacity:1;" d="M 55.113281 35.859375 L 50.425781 35.859375 C 51.117188 35.859375 51.679688 36.421875 51.675781 37.113281 L 51.648438 42.886719 C 51.644531 43.574219 51.085938 44.128906 50.398438 44.128906 L 55.085938 44.128906 C 55.773438 44.128906 56.332031 43.574219 56.335938 42.886719 L 56.363281 37.113281 C 56.367188 36.421875 55.804688 35.859375 55.113281 35.859375 Z M 55.113281 35.859375 "/>
<path style=" stroke:none;fill-rule:nonzero;fill:rgb(96.862745%,96.470588%,96.862745%);fill-opacity:1;" d="M 77.578125 78.828125 L 63.363281 78.828125 L 63.363281 25.960938 L 74.140625 25.960938 C 76.730469 25.960938 78.828125 28.058594 78.828125 30.648438 L 78.828125 77.578125 C 78.828125 78.269531 78.269531 78.828125 77.578125 78.828125 Z M 77.578125 78.828125 "/>
<path style=" stroke:none;fill-rule:nonzero;fill:rgb(92.941176%,92.156863%,92.941176%);fill-opacity:1;" d="M 74.140625 25.960938 L 69.453125 25.960938 C 72.042969 25.960938 74.140625 28.058594 74.140625 30.648438 L 74.140625 77.578125 C 74.140625 78.269531 73.582031 78.828125 72.890625 78.828125 L 77.578125 78.828125 C 78.269531 78.828125 78.828125 78.269531 78.828125 77.578125 L 78.828125 30.648438 C 78.828125 28.058594 76.730469 25.960938 74.140625 25.960938 Z M 74.140625 25.960938 "/>
<path style=" stroke:none;fill-rule:nonzero;fill:rgb(74.509804%,84.705882%,98.431373%);fill-opacity:1;" d="M 63.363281 32.992188 L 70.546875 32.992188 C 71.238281 32.992188 71.800781 33.554688 71.796875 34.246094 L 71.769531 40.015625 C 71.769531 40.707031 71.207031 41.261719 70.519531 41.261719 L 63.363281 41.261719 "/>
<path style=" stroke:none;fill-rule:nonzero;fill:rgb(74.509804%,84.705882%,98.431373%);fill-opacity:1;" d="M 63.363281 48.292969 L 70.546875 48.292969 C 71.238281 48.292969 71.800781 48.855469 71.796875 49.546875 L 71.769531 55.320312 C 71.769531 56.007812 71.207031 56.5625 70.519531 56.5625 L 63.363281 56.5625 Z M 63.363281 48.292969 "/>
<path style=" stroke:none;fill-rule:nonzero;fill:rgb(74.509804%,84.705882%,98.431373%);fill-opacity:1;" d="M 63.363281 63.527344 L 70.546875 63.527344 C 71.238281 63.527344 71.800781 64.089844 71.796875 64.78125 L 71.769531 70.550781 C 71.769531 71.242188 71.207031 71.796875 70.519531 71.796875 L 63.363281 71.796875 Z M 63.363281 63.527344 "/>
<path style=" stroke:none;fill-rule:nonzero;fill:rgb(54.509804%,50.196078%,55.686275%);fill-opacity:1;" d="M 53.050781 51.160156 L 26.949219 51.160156 C 26.429688 51.160156 26.011719 51.578125 26.011719 52.097656 L 26.011719 54.910156 C 26.011719 55.429688 26.429688 55.847656 26.949219 55.847656 L 53.050781 55.847656 C 53.570312 55.847656 53.988281 55.429688 53.988281 54.910156 L 53.988281 52.097656 C 53.988281 51.582031 53.570312 51.160156 53.050781 51.160156 Z M 53.050781 51.160156 "/>
<path style=" stroke:none;fill-rule:nonzero;fill:rgb(46.27451%,42.745098%,47.058824%);fill-opacity:1;" d="M 53.050781 51.160156 L 48.363281 51.160156 C 48.882812 51.160156 49.300781 51.582031 49.300781 52.097656 L 49.300781 54.910156 C 49.300781 55.429688 48.882812 55.847656 48.363281 55.847656 L 53.050781 55.847656 C 53.570312 55.847656 53.988281 55.429688 53.988281 54.910156 L 53.988281 52.097656 C 53.988281 51.582031 53.570312 51.160156 53.050781 51.160156 Z M 53.050781 51.160156 "/>
<path style=" stroke:none;fill-rule:nonzero;fill:rgb(0%,0%,0%);fill-opacity:1;" d="M 74.140625 24.789062 L 68.832031 24.789062 C 68.183594 24.789062 67.660156 25.3125 67.660156 25.960938 C 67.660156 26.605469 68.183594 27.132812 68.832031 27.132812 L 74.140625 27.132812 C 76.078125 27.132812 77.65625 28.707031 77.65625 30.648438 L 77.65625 77.578125 C 77.65625 77.621094 77.621094 77.65625 77.578125 77.65625 L 64.535156 77.65625 L 64.535156 72.96875 L 70.519531 72.96875 C 71.851562 72.96875 72.9375 71.886719 72.941406 70.558594 L 72.96875 64.789062 C 72.980469 63.464844 71.867188 62.347656 70.546875 62.355469 L 64.535156 62.355469 L 64.535156 57.734375 L 70.519531 57.734375 C 71.851562 57.734375 72.9375 56.652344 72.941406 55.324219 L 72.96875 49.554688 C 72.980469 48.230469 71.867188 47.113281 70.546875 47.121094 L 64.535156 47.121094 L 64.535156 42.433594 L 70.519531 42.433594 C 71.851562 42.433594 72.9375 41.351562 72.941406 40.023438 L 72.96875 34.253906 C 72.980469 32.929688 71.867188 31.8125 70.546875 31.820312 L 64.535156 31.820312 L 64.535156 19.6875 C 64.535156 16.457031 61.90625 13.828125 58.675781 13.828125 L 54.953125 13.828125 C 54.355469 6.101562 47.875 0 40 0 C 32.125 0 25.644531 6.101562 25.046875 13.828125 L 21.25 13.828125 C 18.019531 13.828125 15.390625 16.457031 15.390625 19.6875 L 15.390625 24.789062 L 5.859375 24.789062 C 2.628906 24.789062 0 27.417969 0 30.648438 L 0 77.578125 C 0 78.914062 1.085938 80 2.421875 80 L 77.578125 80 C 78.914062 80 80 78.914062 80 77.578125 L 80 30.648438 C 80 27.417969 77.371094 24.789062 74.140625 24.789062 Z M 64.535156 34.164062 L 70.546875 34.164062 C 70.554688 34.164062 70.578125 34.164062 70.601562 34.1875 C 70.625 34.210938 70.625 34.234375 70.625 34.242188 L 70.597656 40.011719 C 70.597656 40.054688 70.5625 40.089844 70.519531 40.089844 L 64.535156 40.089844 Z M 64.535156 49.464844 L 70.546875 49.464844 C 70.554688 49.464844 70.578125 49.464844 70.601562 49.488281 C 70.625 49.511719 70.625 49.535156 70.625 49.542969 L 70.597656 55.3125 C 70.597656 55.355469 70.5625 55.390625 70.519531 55.390625 L 64.535156 55.390625 Z M 64.535156 64.699219 L 70.546875 64.699219 C 70.554688 64.699219 70.578125 64.699219 70.601562 64.722656 C 70.625 64.746094 70.625 64.769531 70.625 64.777344 L 70.597656 70.546875 C 70.597656 70.589844 70.5625 70.625 70.519531 70.625 L 64.535156 70.625 Z M 15.390625 70.625 L 9.480469 70.625 C 9.4375 70.625 9.402344 70.589844 9.402344 70.546875 L 9.375 64.777344 C 9.375 64.769531 9.375 64.746094 9.398438 64.722656 C 9.421875 64.699219 9.445312 64.699219 9.453125 64.699219 L 15.390625 64.699219 Z M 15.390625 55.390625 L 9.480469 55.390625 C 9.4375 55.390625 9.402344 55.355469 9.402344 55.3125 L 9.375 49.542969 C 9.375 49.535156 9.375 49.511719 9.398438 49.488281 C 9.421875 49.464844 9.445312 49.464844 9.453125 49.464844 L 15.390625 49.464844 Z M 15.390625 40.089844 L 9.480469 40.089844 C 9.4375 40.089844 9.402344 40.054688 9.402344 40.011719 L 9.375 34.242188 C 9.375 34.234375 9.375 34.210938 9.398438 34.1875 C 9.421875 34.164062 9.445312 34.164062 9.453125 34.164062 L 15.390625 34.164062 Z M 15.390625 31.820312 L 9.453125 31.820312 C 8.128906 31.8125 7.019531 32.929688 7.03125 34.253906 L 7.058594 40.023438 C 7.0625 41.351562 8.148438 42.433594 9.480469 42.433594 L 15.390625 42.433594 L 15.390625 47.121094 L 9.453125 47.121094 C 8.128906 47.113281 7.019531 48.230469 7.03125 49.554688 L 7.058594 55.324219 C 7.0625 56.652344 8.148438 57.734375 9.480469 57.734375 L 15.390625 57.734375 L 15.390625 62.355469 L 9.453125 62.355469 C 8.128906 62.347656 7.019531 63.464844 7.03125 64.789062 L 7.058594 70.558594 C 7.0625 71.886719 8.148438 72.96875 9.480469 72.96875 L 15.390625 72.96875 L 15.390625 77.65625 L 2.421875 77.65625 C 2.378906 77.65625 2.34375 77.621094 2.34375 77.578125 L 2.34375 30.648438 C 2.34375 28.707031 3.921875 27.132812 5.859375 27.132812 L 15.390625 27.132812 Z M 40 2.34375 C 46.980469 2.34375 52.65625 8.019531 52.65625 15 C 52.65625 21.980469 46.980469 27.65625 40 27.65625 C 33.019531 27.65625 27.34375 21.980469 27.34375 15 C 27.34375 8.019531 33.019531 2.34375 40 2.34375 Z M 50.472656 77.65625 L 41.171875 77.65625 L 41.171875 57.019531 L 50.472656 57.019531 Z M 27.183594 54.675781 L 27.183594 52.332031 L 52.816406 52.332031 L 52.816406 54.675781 Z M 62.191406 77.65625 L 52.816406 77.65625 L 52.816406 57.019531 C 54.039062 57.089844 55.167969 56.195312 55.160156 54.910156 L 55.160156 52.097656 C 55.160156 50.933594 54.214844 49.988281 53.050781 49.988281 L 26.949219 49.988281 C 25.785156 49.988281 24.839844 50.933594 24.839844 52.097656 L 24.839844 54.910156 C 24.832031 56.140625 25.941406 57.148438 27.183594 57.019531 L 27.183594 65.316406 C 27.183594 65.964844 27.707031 66.488281 28.355469 66.488281 C 29.003906 66.488281 29.527344 65.964844 29.527344 65.316406 L 29.527344 57.019531 L 38.828125 57.019531 L 38.828125 77.65625 L 29.527344 77.65625 L 29.527344 70.785156 C 29.527344 70.140625 29.003906 69.613281 28.355469 69.613281 C 27.707031 69.613281 27.183594 70.140625 27.183594 70.785156 L 27.183594 77.65625 L 17.734375 77.65625 L 17.734375 19.6875 C 17.734375 17.75 19.3125 16.171875 21.25 16.171875 L 25.046875 16.171875 C 25.644531 23.898438 32.125 30 40 30 C 47.875 30 54.355469 23.898438 54.953125 16.171875 L 58.675781 16.171875 C 60.613281 16.171875 62.191406 17.75 62.191406 19.6875 Z M 36.484375 18.515625 L 36.484375 23.203125 C 36.484375 24.367188 37.429688 25.3125 38.59375 25.3125 L 41.40625 25.3125 C 42.570312 25.3125 43.515625 24.367188 43.515625 23.203125 L 43.515625 18.515625 L 48.203125 18.515625 C 49.367188 18.515625 50.3125 17.570312 50.3125 16.40625 L 50.3125 13.59375 C 50.3125 12.429688 49.367188 11.484375 48.203125 11.484375 L 43.515625 11.484375 L 43.515625 6.796875 C 43.515625 5.632812 42.570312 4.6875 41.40625 4.6875 L 38.59375 4.6875 C 37.429688 4.6875 36.484375 5.632812 36.484375 6.796875 L 36.484375 11.484375 L 31.796875 11.484375 C 30.632812 11.484375 29.6875 12.429688 29.6875 13.59375 L 29.6875 16.40625 C 29.6875 17.570312 30.632812 18.515625 31.796875 18.515625 Z M 32.03125 13.828125 L 37.1875 13.828125 C 38.09375 13.828125 38.828125 13.09375 38.828125 12.1875 L 38.828125 7.03125 L 41.171875 7.03125 L 41.171875 12.1875 C 41.171875 13.09375 41.90625 13.828125 42.8125 13.828125 L 47.96875 13.828125 L 47.96875 16.171875 L 42.8125 16.171875 C 41.90625 16.171875 41.171875 16.90625 41.171875 17.8125 L 41.171875 22.96875 L 38.828125 22.96875 L 38.828125 17.8125 C 38.828125 16.90625 38.09375 16.171875 37.1875 16.171875 L 32.03125 16.171875 Z M 35.3125 69.710938 C 35.960938 69.710938 36.484375 69.183594 36.484375 68.539062 L 36.484375 66.140625 C 36.484375 65.492188 35.960938 64.96875 35.3125 64.96875 C 34.664062 64.96875 34.140625 65.492188 34.140625 66.140625 L 34.140625 68.539062 C 34.140625 69.183594 34.664062 69.710938 35.3125 69.710938 Z M 35.234375 34.6875 L 24.875 34.6875 C 23.546875 34.6875 22.460938 35.769531 22.453125 37.097656 L 22.425781 42.867188 C 22.414062 44.1875 23.527344 45.308594 24.847656 45.300781 L 35.234375 45.300781 C 36.570312 45.300781 37.65625 44.214844 37.65625 42.878906 L 37.65625 37.109375 C 37.65625 35.773438 36.570312 34.6875 35.234375 34.6875 Z M 35.3125 42.878906 C 35.3125 42.921875 35.277344 42.957031 35.234375 42.957031 L 24.847656 42.957031 C 24.816406 42.960938 24.765625 42.910156 24.769531 42.878906 L 24.796875 37.109375 C 24.796875 37.066406 24.832031 37.03125 24.875 37.03125 L 35.234375 37.03125 C 35.277344 37.03125 35.3125 37.066406 35.3125 37.109375 Z M 44.6875 69.710938 C 45.335938 69.710938 45.859375 69.183594 45.859375 68.539062 L 45.859375 66.140625 C 45.859375 65.492188 45.335938 64.96875 44.6875 64.96875 C 44.039062 64.96875 43.515625 65.492188 43.515625 66.140625 L 43.515625 68.539062 C 43.515625 69.183594 44.039062 69.710938 44.6875 69.710938 Z M 55.113281 34.6875 L 44.765625 34.6875 C 43.429688 34.6875 42.34375 35.773438 42.34375 37.109375 L 42.34375 42.878906 C 42.34375 44.214844 43.429688 45.300781 44.765625 45.300781 L 55.085938 45.300781 C 56.417969 45.300781 57.503906 44.21875 57.507812 42.890625 L 57.535156 37.121094 C 57.546875 35.796875 56.433594 34.679688 55.113281 34.6875 Z M 55.164062 42.878906 C 55.164062 42.921875 55.128906 42.957031 55.085938 42.957031 L 44.765625 42.957031 C 44.722656 42.957031 44.6875 42.921875 44.6875 42.878906 L 44.6875 37.109375 C 44.6875 37.066406 44.722656 37.03125 44.765625 37.03125 L 55.113281 37.03125 C 55.121094 37.03125 55.144531 37.03125 55.167969 37.054688 C 55.191406 37.078125 55.191406 37.101562 55.191406 37.109375 Z M 55.164062 42.878906 "/>
</g>
</svg>
