<svg id="Capa_1" enable-background="new 0 0 512 512" height="512" viewBox="0 0 512 512" width="512" xmlns="http://www.w3.org/2000/svg"><g><g><path d="m385.094 46.45v48.94h-146.41c-13.75 0-24.89 11.14-24.89 24.89v139.26l36.92-22.22h134.38v228.23c0 20.13-16.32 36.45-36.45 36.45h-128v-180.58c0-16.19-13-29.04-29.04-29.04-15.669 0-29.03 13.38-29.03 29.04v84.95c.064 11.307-8.447 21.188-19.66 22.86-13.364 1.993-25.974-8.255-26.58-21.67v-361.11c0-20.13 16.32-36.45 36.45-36.45h195.86c20.13 0 36.45 16.32 36.45 36.45z" fill="#a7bcce"/></g><g><path d="m213.794 120.28v139.26l36.92-22.22h134.38v154.31c0 15.77-12.78 28.55-28.55 28.55h-135.9v-98.76c0-16.19-13-29.04-29.04-29.04-15.655 0-29.03 13.392-29.03 29.04v84.95c.072 11.339-8.439 21.138-19.66 22.86-13.327 2.046-25.97-8.281-26.58-21.67v-327.22c0-15.77 12.79-28.55 28.56-28.55h211.65c15.77 0 28.55 12.78 28.55 28.55v15.05h-146.41c-13.75 0-24.89 11.14-24.89 24.89z" fill="#a0c8ff"/></g><g><path d="m220.649 502v-72.499-108.08c0-16.188-13.001-29.039-29.039-29.039-15.826-.002-29.039 13.215-29.039 29.039v84.947c0 12.776-10.359 23.134-23.135 23.134-12.6.002-23.132-10.534-23.132-23.134v-118.819l-75.54 101.175c-9.639 12.911-11.088 30.183-3.733 44.518l44.852 68.758" fill="#ffdad5"/></g><g><path d="m220.649 502v-72.499-108.08c0-16.188-13.001-29.039-29.039-29.039-15.826-.002-29.039 13.215-29.039 29.039v84.947c0 12.776-10.359 23.134-23.135 23.134-12.6.002-23.132-10.534-23.132-23.134v-118.819l-75.54 101.175c-9.639 12.911-11.088 30.183-3.733 44.518l44.852 68.758" fill="#ffdad5"/></g><g><path d="m81.884 502-44.85-68.76c-7.36-14.33-5.91-31.61 3.73-44.52l75.54-101.17v118.82c0 12.513 10.517 23.177 23.131 23.13 12.78 0 23.139-10.36 23.139-23.13v-84.95c0-15.758 13.213-29.04 29.03-29.04 16.04 0 29.04 12.85 29.04 29.04v98.76 9.32 72.5" fill="#ffdad5"/></g><g><path d="m81.884 502-44.85-68.76c-7.36-14.33-5.91-31.61 3.73-44.52l75.54-101.17v118.82c0 12.614 10.549 23.028 23.131 23.13 12.78 0 23.139-10.36 23.139-23.13v-84.95c0-15.765 13.195-29.04 29.03-29.04 16.04 0 29.04 12.85 29.04 29.04v98.76 9.32 72.5" fill="#ffdad5"/></g><g><path d="m132.554 428.46c-9.456-3.142-16.216-12.1-16.25-22.09v-118.82l-75.54 101.17c-9.64 12.91-11.09 30.19-3.73 44.52l44.85 68.76" fill="#ffdad5"/></g><g><path d="m81.884 502-44.85-68.76c-7.36-14.33-5.91-31.61 3.73-44.52l75.54-101.17v118.82c0 12.614 10.549 23.028 23.131 23.13 12.78 0 23.139-10.36 23.139-23.13v-84.95c0-15.765 13.195-29.04 29.03-29.04 16.04 0 29.04 12.85 29.04 29.04v98.76 9.32 72.5" fill="#ffdad5"/></g><g><path d="m220.644 502v-72.5-9.32-98.76c0-16.19-13-29.04-29.04-29.04-15.835 0-29.03 13.275-29.03 29.04v84.95c0 12.77-10.359 23.13-23.139 23.13-12.581-.052-23.131-10.549-23.131-23.13v-118.82l-75.54 101.17c-9.64 12.91-11.09 30.19-3.73 44.52l44.85 68.76z" fill="#ffdad5"/></g><g><path d="m454.669 95.386h-215.981c-13.749 0-24.895 11.146-24.895 24.895v139.256l36.922-22.213h203.954c13.749 0 24.895-11.146 24.895-24.895v-92.148c0-13.749-11.146-24.895-24.895-24.895z" fill="#ff7b7b"/></g><g><path d="m240.91 461.87c.851 4.196 4.337 7.425 8.581 7.968 4.22.539 8.45-1.802 10.26-5.646 3.711-7.88-4.203-16.649-12.406-13.679-4.587 1.66-7.41 6.552-6.435 11.357z"/><path d="m454.67 85.386h-59.575v-5.046-33.89c0-25.613-20.837-46.45-46.45-46.45h-195.86c-25.613 0-46.45 20.837-46.45 46.45v33.89 203.844l-40.245 53.902-33.339 44.65c-5.78 7.74-9.278 17.079-10.116 26.695-.409 4.693-.19 9.439.657 14.073.934 5.106 2.5 10.81 5.362 15.2l44.852 68.758c2.979 4.567 9.274 5.891 13.841 2.913 4.561-2.975 5.889-9.275 2.913-13.839l-44.548-68.296c-5.296-10.709-4.081-23.964 3.065-33.535l33.253-44.539 24.272-32.507v88.707c0 14.171 9.311 26.636 22.522 31.372 3.755 1.346 7.79 1.869 11.766 1.732 17.631-.585 31.984-15.466 31.984-33.101v-84.95c0-10.104 8.924-19.039 19.035-19.039 10.495 0 19.035 8.549 19.035 19.039v98.76 81.821c0 5.523 4.477 10 10 10h128c25.613 0 46.45-20.837 46.45-46.45v-73.92-1.092c0-5.523-4.477-10-10-10s-10 4.477-10 10v1.092c0 10.229-8.322 18.55-18.55 18.55h-125.895v-88.76c0-15.847-9.97-30.473-24.698-36.311-4.76-1.887-9.865-2.798-14.982-2.713-15.981.258-30.582 10.821-36.066 25.81-1.546 4.224-2.332 8.716-2.332 13.214v84.947c0 6.65-5.536 12.577-12.163 13.082-7.076.535-13.751-5.457-14.073-12.519v-326.59c0-10.229 8.326-18.55 18.56-18.55h211.65c10.229 0 18.55 8.321 18.55 18.55v5.046h-136.407c-19.241 0-34.895 15.654-34.895 34.895v139.256c0 7.647 8.633 12.499 15.158 8.571l34.541-20.784h121.603v55.228c0 5.523 4.477 10 10 10s10-4.477 10-10v-55.228h59.575c19.241 0 34.895-15.654 34.895-34.895v-92.148c-.001-19.241-15.655-34.895-34.895-34.895zm-98.126 344.794c6.721 0 13.043-1.733 18.55-4.769v40.139c0 14.584-11.866 26.45-26.45 26.45h-117.995v-61.82zm0-388.39h-211.65c-6.725 0-13.05 1.734-18.56 4.772v-.112c0-14.584 11.866-26.45 26.45-26.45h195.86c14.584 0 26.45 11.866 26.45 26.45v.109c-5.507-3.036-11.829-4.769-18.55-4.769zm113.02 170.639c0 8.213-6.682 14.895-14.895 14.895h-69.498c-.026 0-.051-.004-.077-.004h-134.38c-1.817 0-3.6.495-5.157 1.432l-21.763 13.097v-121.569c0-8.21 6.68-14.89 14.89-14.89h146.41c.026 0 .051-.004.077-.004h69.498c8.213 0 14.895 6.682 14.895 14.895z"/><path d="m267.938 141.467h17.126c5.523 0 10-4.477 10-10s-4.477-10-10-10h-17.126c-13.354 0-24.219 10.865-24.219 24.219v7.059c0 13.354 10.865 24.219 24.219 24.219h2.907c2.327 0 4.219 1.893 4.219 4.22v5.691c0 2.327-1.893 4.219-4.219 4.219h-17.126c-5.523 0-10 4.477-10 10s4.477 10 10 10h17.126c13.354 0 24.219-10.865 24.219-24.219v-5.691c0-13.355-10.865-24.22-24.219-24.22h-2.907c-2.327 0-4.219-1.893-4.219-4.219v-7.059c0-2.326 1.892-4.219 4.219-4.219z"/><path d="m421.044 141.467h17.126c5.523 0 10-4.477 10-10s-4.477-10-10-10h-17.126c-13.354 0-24.219 10.865-24.219 24.219v7.059c0 13.354 10.865 24.219 24.219 24.219h2.907c2.327 0 4.219 1.893 4.219 4.22v5.691c0 2.327-1.893 4.219-4.219 4.219h-17.126c-5.523 0-10 4.477-10 10s4.477 10 10 10h17.126c13.354 0 24.219-10.865 24.219-24.219v-5.691c0-13.355-10.865-24.22-24.219-24.22h-2.907c-2.327 0-4.219-1.893-4.219-4.219v-7.059c0-2.326 1.892-4.219 4.219-4.219z"/><path d="m352.398 121.467h-12.907c-13.354 0-24.219 10.865-24.219 24.219v41.188c0 13.354 10.865 24.219 24.219 24.219h12.907c13.354 0 24.219-10.865 24.219-24.219v-41.188c0-13.354-10.864-24.219-24.219-24.219zm4.219 65.408c0 2.327-1.893 4.219-4.219 4.219h-12.907c-2.327 0-4.219-1.893-4.219-4.219v-41.188c0-2.327 1.893-4.219 4.219-4.219h12.907c2.327 0 4.219 1.893 4.219 4.219z"/><path d="m393.41 340.15c-3.046-4.525-9.316-5.8-13.87-2.77-4.544 3.023-5.766 9.341-2.76 13.87 3.017 4.545 9.342 5.766 13.87 2.76 4.535-3.012 5.771-9.342 2.76-13.86z"/></g></g></svg>